<svg version="1.1" id="Layer_1" xmlns="http://www.w3.org/2000/svg" xmlns:xlink="http://www.w3.org/1999/xlink" x="0px" y="0px"
	 viewBox="0 0 325.1 289.9" style="enable-background:new 0 0 325.1 289.9;" xml:space="preserve">
<style type="text/css">
	<style>
		path {
			fill: #171a21;
		}
		@media ( prefers-color-scheme: dark ) {
			path {
				fill: #ffffff;
			}
		}
	</style>

</style>
<g>
	<path class="st0" d="M36.4,38.3c1.7,0.6,3.5,0.6,5.8,1.2c1.2,0,2.3,1.2,2.3,2.3c0.6,2.3,1.7,4.6,2.3,7.5c0.6,1.2,0,2.3-1.2,1.7
		c-1.7-0.6-3.5-0.6-5.2-1.2c-1.2,0-1.7-1.2-2.3-2.3c-0.6-2.3-1.7-5.2-2.3-7.5C35.2,38.8,35.8,37.7,36.4,38.3"/>
	<path class="st0" d="M42.7,26.1c1.7,0.6,4.1,1.2,5.8,1.7c1.2,0,2.3,1.7,2.3,2.9c0.6,1.7,1.7,4.1,2.3,6.4c0.6,1.2,0,1.7-1.2,1.7
		c-1.7-0.6-3.5-1.2-5.8-1.2c-1.2,0-2.3-1.2-2.3-2.9c-0.6-2.3-1.7-4.6-2.3-7.5C41,26.7,41.6,25.5,42.7,26.1"/>
	<path class="st0" d="M53.8,29c1.7,0.6,4.1,1.2,5.8,1.7c1.2,0.6,2.3,1.7,2.3,2.9c1.2,2.3,1.7,4.6,2.9,7c0.6,1.2,0,1.7-1.2,1.7
		c-1.7-0.6-4.1-1.2-5.8-1.7c-1.2,0-2.3-1.7-2.3-2.9c-0.6-2.3-1.7-4.6-2.3-7C52.6,29.6,53.2,29,53.8,29"/>
	<path class="st0" d="M88.5,41.7c1.7,0.6,4.1,1.7,5.8,2.9c1.2,0.6,2.3,1.7,2.3,2.9c0.6,2.3,1.2,4.1,2.3,6.4c0.6,1.2,0,1.7-1.2,1.2
		c-1.7-1.2-4.1-1.7-5.8-2.3c-1.2-0.6-2.3-1.7-2.3-2.9c-0.6-2.3-1.2-4.1-2.3-6.4C87.4,41.7,87.9,41.7,88.5,41.7"/>
	<path class="st0" d="M47.4,40.6c1.7,0.6,3.5,0.6,5.8,1.2c1.2,0,2.3,1.2,2.3,2.9c0.6,2.3,1.7,4.6,2.3,7c0.6,1.2,0,1.7-1.2,1.7
		c-1.7-0.6-3.5-1.2-5.2-1.2c-1.2,0-1.7-1.2-2.3-2.3c-0.6-2.3-1.7-4.6-2.3-7.5C46.2,41.2,46.8,40,47.4,40.6"/>
	<path class="st0" d="M58.4,43.5c1.7,0.6,4.1,1.2,5.8,1.7c1.2,0,2.3,1.2,2.3,2.3c0.6,2.3,1.7,4.6,2.3,7c0.6,1.2,0,1.7-1.2,1.7
		c-1.7-0.6-4.1-1.2-5.8-1.2c-1.2,0-2.3-1.2-2.3-2.3c-0.6-2.3-1.7-4.6-2.3-7C57.2,43.5,57.8,42.9,58.4,43.5"/>
	<path class="st0" d="M70,46.4c1.7,0.6,4.1,1.2,5.8,1.7c1.2,0.6,2.3,1.7,2.3,2.9c0.6,2.3,1.7,4.6,2.3,6.4c0.6,1.2,0,1.7-1.2,1.2
		c-1.7-0.6-4.1-1.2-5.8-1.7c-1.2,0-2.3-1.2-2.3-2.3c-0.6-2.3-1.7-4.6-2.3-7C68.2,47,68.8,46.4,70,46.4"/>
	<path class="st0" d="M81.6,50.4c1.7,0.6,4.1,1.2,5.8,2.3c1.2,0.6,2.3,1.7,2.3,2.9c0.6,2.3,1.2,4.1,2.3,6.4c0.6,1.2,0,1.7-1.2,1.2
		c-1.7-0.6-4.1-1.2-5.8-2.3c-1.2-0.6-2.3-1.7-2.3-2.9c-0.6-2.3-1.7-4.6-2.3-6.4C79.8,50.4,80.4,49.8,81.6,50.4"/>
	<path class="st0" d="M93.1,55.1c1.7,0.6,4.1,1.7,5.8,2.3c1.2,0.6,2.3,1.7,2.3,2.9c0.6,2.3,1.2,4.1,2.3,6.4c0.6,1.2,0,1.7-1.2,1.2
		c-1.7-1.2-4.1-1.7-5.8-2.3c-1.2-0.6-2.3-1.7-2.3-2.9c-0.6-2.3-1.2-4.1-2.3-6.4C91.4,55.1,92,54.5,93.1,55.1"/>
	<path class="st0" d="M74.6,60.3c1.7,0.6,4.1,1.2,5.8,1.7c1.2,0.6,2.3,1.7,2.3,2.3c0.6,2.3,1.7,4.6,2.3,6.4c0.6,1.2,0,1.7-1.2,1.7
		c-1.7-0.6-4.1-1.2-5.8-1.7c-1.2,0-2.3-1.2-2.3-2.3c-0.6-2.3-1.7-4.6-2.3-7C72.9,60.3,73.4,59.7,74.6,60.3"/>
	<path class="st0" d="M85.6,63.8c1.7,0.6,4.1,1.2,5.8,2.3c1.2,0.6,2.3,1.7,2.3,2.9c0.6,2.3,1.7,4.1,2.3,6.4c0.6,1.2,0,1.7-1.2,1.2
		c-1.7-0.6-4.1-1.2-5.8-1.7c-1.2-0.6-2.3-1.7-2.3-2.3c-0.6-2.3-1.7-4.6-2.3-6.4C84.5,63.8,85,63.2,85.6,63.8"/>
	<path class="st0" d="M68.2,71.3c1.7,0.6,3.5,0.6,5.8,1.2c1.2,0,2.3,1.2,2.3,2.3c0.6,2.3,1.7,4.6,2.3,7c0.6,1.2,0,1.7-1.2,1.7
		c-1.7-0.6-3.5-0.6-5.2-1.2c-1.2,0-1.7-1.2-2.3-2.3c-0.6-2.3-1.7-4.6-2.3-7C66.5,71.9,67.1,71.3,68.2,71.3"/>
	<path class="st0" d="M79.2,73.6c1.7,0.6,4.1,1.2,5.8,1.7c1.2,0,2.3,1.2,2.3,2.3c0.6,2.3,1.7,4.6,2.3,6.4c0.6,1.2,0,1.7-1.2,1.7
		c-1.7-0.6-4.1-1.2-5.8-1.2c-1.2,0-2.3-1.2-2.3-2.3c-0.6-2.3-1.7-4.6-2.3-7C77.5,74.2,78.1,73.6,79.2,73.6"/>
	<path class="st0" d="M90.2,77.1c1.7,0.6,4.1,1.2,5.8,1.7c1.2,0.6,2.3,1.7,2.3,2.9c0.6,2.3,1.7,4.1,2.3,6.4c0.6,1.2,0,1.7-1.2,1.2
		c-1.7-0.6-4.1-1.2-5.8-1.7c-1.2-0.6-2.3-1.2-2.3-2.3c-0.6-2.3-1.7-4.6-2.3-6.4C89.1,77.1,89.1,76.5,90.2,77.1"/>
	<path class="st0" d="M101.8,81.1c1.7,0.6,4.1,1.7,5.8,2.3c1.2,0.6,2.3,1.7,2.3,2.9c0.6,2.3,1.2,4.1,2.3,6.4c0.6,1.2,0,1.7-1.2,1.2
		c-1.7-0.6-4.1-1.7-5.8-2.3c-1.2-0.6-2.3-1.7-2.3-2.9c-0.6-2.3-1.2-4.1-2.3-6.4C100.1,81.1,100.7,80.5,101.8,81.1"/>
	<path class="st0" d="M101.8,48.1c2.3,1.2,4.1,2.3,6.4,3.5c1.2,0.6,2.3,2.3,2.9,2.9c0.6,2.3,1.2,4.1,2.3,6.4c0.6,1.2,0,1.2-1.2,0.6
		c-2.9-1.2-5.2-2.3-7-3.5c-1.2-0.6-2.3-1.7-2.3-2.9c-0.6-2.3-1.2-4.1-2.3-6.4C100.1,48.1,100.7,47.5,101.8,48.1"/>
	<path class="st0" d="M105.9,60.9c2.3,1.2,4.1,2.3,6.4,2.9c1.2,0.6,2.3,2.3,2.9,2.9c0.6,2.3,1.2,4.1,2.3,6.4c0.6,1.2,0,1.2-1.2,0.6
		c-2.3-1.2-4.1-2.3-6.4-2.9c-1.2-0.6-2.3-1.7-2.3-2.9c-1.7-1.7-2.3-4.1-2.9-5.8C104.2,60.9,104.7,60.3,105.9,60.9"/>
	<path class="st0" d="M109.9,73.6c2.3,1.2,4.1,1.7,6.4,2.9c1.2,0.6,2.3,1.7,2.9,2.9c0.6,2.3,1.2,4.1,2.3,6.4c0.6,1.2,0,1.2-1.2,0.6
		c-2.3-1.2-4.1-2.3-6.4-2.9c-1.2-0.6-2.3-1.7-2.3-2.9c-0.6-2.3-1.2-4.1-2.3-6.4C108.8,73.6,109.4,73,109.9,73.6"/>
	<path class="st0" d="M114.6,86.3c2.3,1.2,4.1,1.7,6.4,2.9c1.2,0.6,2.3,1.7,2.9,2.9c0.6,2.3,1.2,4.1,2.3,6.4c0.6,1.2,0,1.2-1.2,0.6
		c-2.3-1.2-4.1-1.7-6.4-2.9c-1.2-0.6-2.3-1.7-2.3-2.9c-0.6-2.3-1.2-4.1-2.3-6.4C112.8,86.3,113.4,85.8,114.6,86.3"/>
	<path class="st0" d="M114,55.1c2.3,1.2,4.6,2.9,6.4,4.1c1.2,0.6,2.3,2.3,2.9,3.5c0.6,2.3,1.2,4.1,2.3,6.4c0.6,1.2,0,1.2-1.2,0.6
		c-2.3-1.7-4.6-2.9-6.4-4.1c-1.2-0.6-2.3-2.3-2.9-2.9c-0.6-2.3-1.2-4.1-2.3-6.4C112.3,54.5,112.8,54.5,114,55.1"/>
	<path class="st0" d="M127.3,63.8c2.3,1.7,4.6,4.1,7,5.8c1.2,1.2,2.3,2.9,2.9,3.5c0.6,1.7,1.2,4.1,2.3,6.4c0.6,1.2-0.6,1.2-1.7,0
		c-2.3-1.7-4.6-4.1-7-5.8c-1.2-1.2-2.3-2.3-2.9-3.5c-0.6-2.3-1.2-4.1-2.3-6.4C125.6,63.2,126.2,62.6,127.3,63.8"/>
	<path class="st0" d="M141.8,76.5c2.9,2.9,5.8,6.4,9.3,11c1.7,2.3,16.2,45.8,16.2,45.8S155.1,98.5,154,96.8
		c-2.9-4.1-6.4-7.5-8.7-10.4c-1.2-1.2-2.3-2.9-2.9-4.1c-0.6-1.7-1.2-4.1-1.7-5.8C139.5,74.8,140.6,75.3,141.8,76.5"/>
	<path class="st0" d="M131.4,75.9c2.3,1.7,4.6,3.5,7,5.8c1.2,1.2,2.3,2.9,2.9,3.5c0.6,2.3,1.2,4.1,2.3,6.4c0.6,1.2-0.6,1.2-1.7,0
		c-2.3-1.7-4.6-4.1-7-5.8c-1.2-0.6-2.3-2.3-2.9-3.5c-0.6-2.3-1.2-4.1-2.3-6.4C129.6,75.3,130.2,75.3,131.4,75.9"/>
	<path class="st0" d="M145.9,88.7c2.9,2.9,5.8,6.4,8.7,10.4c1.7,1.7,12.7,34.2,12.7,34.2s-8.1-23.8-9.8-25.5c-2.9-3.5-5.8-7-8.7-9.3
		c-1.2-1.2-2.3-2.9-2.9-4.1c-0.6-2.3-1.2-4.1-1.7-5.8C143.5,86.9,144.7,87.5,145.9,88.7"/>
	<path class="st0" d="M122.7,80c2.3,1.2,4.1,2.9,6.4,4.1c1.2,0.6,2.3,2.3,2.9,3.5c0.6,2.3,1.2,4.1,2.3,6.4c0.6,1.2,0,1.2-1.2,0.6
		c-2.3-1.2-4.6-2.9-6.4-4.1c-1.2-0.6-2.3-1.7-2.3-2.9c-0.6-2.3-1.2-4.1-2.3-6.4C121,80,121.5,79.4,122.7,80"/>
	<path class="st0" d="M135.4,88.7c2.3,1.7,4.6,3.5,7,5.8c1.2,1.2,2.3,2.9,2.9,3.5c0.6,2.3,1.2,4.1,2.3,6.4c0.6,1.2-0.6,1.2-1.7,0
		c-2.3-1.7-4.6-3.5-7-5.2c-1.2-0.6-2.3-2.3-2.9-3.5c-0.6-2.3-1.2-4.1-2.3-6.4C133.7,88.1,134.3,87.5,135.4,88.7"/>
	<path class="st0" d="M149.9,100.8c2.9,2.3,5.8,5.8,8.7,9.3c1.7,1.7,9.3,23.2,9.3,23.2s-4.6-12.2-6.4-13.9c-2.9-3.5-5.8-6.4-8.1-8.7
		c-1.2-1.2-2.3-2.9-2.9-4.1c-0.6-1.7-1.2-4.1-1.7-5.8C147.6,99.1,148.8,99.7,149.9,100.8"/>
	<path class="st0" d="M126.7,92.7c2.3,1.2,4.1,2.9,6.4,4.1c1.2,0.6,2.3,2.3,2.9,3.5c0.6,2.3,1.2,4.1,2.3,6.4c0.6,1.2,0,1.2-1.2,0.6
		c-2.3-1.2-4.6-2.9-6.4-4.1c-1.2-0.6-2.3-1.7-2.3-2.9c-0.6-2.3-1.2-4.1-2.3-6.4C125,92.7,125.6,92.1,126.7,92.7"/>
	<path class="st0" d="M140.1,101.4c2.3,1.7,4.6,3.5,7,5.2c1.2,1.2,2.3,2.9,2.9,3.5c0.6,2.3,1.2,4.1,2.3,6.4c0.6,1.2-0.6,1.2-1.7,0
		c-2.3-1.7-4.6-3.5-7-5.2c-1.2-0.6-2.3-2.3-2.9-3.5c-0.6-2.3-1.2-4.1-2.3-6.4C137.8,100.8,138.9,100.2,140.1,101.4"/>
	<path class="st0" d="M154,112.4c2.9,2.3,5.2,5.2,8.1,8.7c1.2,1.7,5.2,11.6,5.2,11.6s-1.2-1.2-2.3-2.9c-2.9-2.9-5.2-5.8-8.1-8.1
		c-1.2-1.2-2.3-2.9-2.9-3.5c-0.6-1.7-1.2-4.1-1.7-5.8C151.7,111.3,152.8,111.3,154,112.4"/>
	<path class="st0" d="M138.3,263.6c1.7-1.7,3.5-2.9,5.2-4.6c0.6-0.6,0.6-1.7,0-2.3c-1.7-1.7-2.9-3.5-4.6-4.6c-0.6-0.6-1.2-0.6-2.3,0
		c-1.7,1.7-3.5,2.9-5.2,4.1c-0.6,0.6-0.6,1.2,0,1.7c1.7,1.7,2.9,3.5,4.6,5.2C137.2,264.2,137.8,264.2,138.3,263.6 M122.7,228.3
		c1.7-1.7,3.5-2.9,5.2-4.6c0.6-0.6,0.6-1.7,0-2.3c-1.2-1.7-2.9-2.9-4.1-4.6c-0.6-0.6-1.2-0.6-1.7,0c-1.7,1.2-3.5,2.9-5.2,4.1
		c-0.6,0.6-0.6,1.2,0,1.7c1.7,1.7,2.9,3.5,4.6,4.6C121.5,228.9,122.1,228.9,122.7,228.3z M132,219.6c1.7-1.7,2.9-3.5,4.6-4.6
		c0.6-0.6,0.6-1.7,0-2.3c-1.2-1.7-2.9-2.9-4.1-4.6c-0.6-0.6-1.2-0.6-1.7,0c-1.7,1.7-2.9,2.9-4.6,4.6c-0.6,0.6-0.6,1.2,0,1.7
		c1.2,1.7,2.9,2.9,4.1,4.6C130.8,220.2,131.4,220.2,132,219.6z M140.6,210.3c1.7-1.7,2.9-3.5,4.1-5.2c0.6-0.6,0.6-1.7,0-2.3
		c-1.2-1.2-2.3-2.9-4.1-4.1c-0.6-0.6-1.2-0.6-1.7,0c-1.7,1.7-2.9,3.5-4.6,5.2c-0.6,0.6-0.6,1.7,0,2.3c1.2,1.7,2.9,2.9,4.1,4.6
		C139.5,211.5,140.1,210.9,140.6,210.3z M148.8,200.5c1.2-1.7,2.3-3.5,4.1-5.8c0.6-0.6,0.6-1.7,0-2.3c-1.2-1.2-2.3-2.3-3.5-4.1
		c-0.6-0.6-1.2-0.6-1.7,0.6c-1.2,1.7-2.9,3.5-4.1,5.2c-0.6,0.6-0.6,1.7,0,2.3c1.2,1.2,2.3,2.9,4.1,4.1
		C147,201.6,148.2,201.6,148.8,200.5z M155.7,190c1.2-1.7,2.3-4.1,3.5-6.4c0.6-0.6,0.6-1.7,0-2.3c-1.2-1.2-2.3-2.3-2.9-3.5
		c-0.6-0.6-1.2,0-1.7,0.6c-1.2,1.7-2.3,4.1-4.1,5.8c-0.6,0.6-0.6,1.7,0,2.3c1.2,1.2,2.3,2.3,3.5,4.1
		C154.6,191.2,155.1,190.6,155.7,190z M162.1,178.5c1.2-2.3,1.7-4.6,2.9-7c0.6-0.6,0-1.7,0-2.3c-1.2-1.2-1.7-1.7-2.9-2.9
		c-0.6-0.6-0.6,0-1.2,0.6c-1.2,2.3-2.3,4.1-3.5,6.4c-0.6,0.6-0.6,1.7,0,2.3c1.2,1.2,2.3,2.3,2.9,3.5
		C160.9,179.6,161.5,179,162.1,178.5z M166.7,165.1c0.6-2.3,1.2-5.2,1.7-8.1c0-1.2,0-2.3,0-2.3c-0.6-0.6-1.2-1.2-1.7-1.7
		c0,0-0.6,0.6-0.6,1.2c-0.6,2.3-1.7,4.6-2.3,7c-0.6,0.6-0.6,1.7,0,2.3c0.6,1.2,1.7,1.7,2.3,2.9C166.1,166.3,166.7,166.3,166.7,165.1
		z M140.1,228.3c1.7-1.7,2.9-3.5,4.6-5.2c0.6-0.6,0.6-1.7,0-2.3c-1.2-1.7-2.9-2.9-4.1-4.6c-0.6-0.6-1.2-0.6-1.7,0
		c-1.7,1.7-2.9,3.5-4.6,4.6c-0.6,0.6-0.6,1.7,0,2.3c1.2,1.7,2.9,2.9,4.1,4.6C138.9,228.9,139.5,228.9,140.1,228.3z M148.2,219
		c1.2-1.7,2.9-3.5,4.1-5.2c0.6-0.6,0.6-1.7,0-2.3c-1.2-1.2-2.9-2.9-4.1-4.1c-0.6-0.6-1.2-0.6-1.7,0c-1.2,1.7-2.9,3.5-4.1,5.2
		c-0.6,0.6-0.6,1.7,0,2.3c1.2,1.7,2.9,2.9,4.1,4.6C147,219.6,147.6,219.6,148.2,219z M155.7,208.6c1.2-1.7,2.3-4.1,3.5-5.8
		c0.6-0.6,0.6-1.7,0-2.3c-1.2-1.2-2.3-2.3-3.5-4.1c-0.6-0.6-1.2,0-1.7,0.6c-1.2,1.7-2.3,4.1-4.1,5.8c-0.6,0.6-0.6,1.7,0,2.3
		c1.2,1.2,2.3,2.9,4.1,4.1C154.6,209.2,155.1,209.2,155.7,208.6z M162.1,197c1.2-2.3,2.3-4.1,2.9-6.4c0.6-0.6,0.6-1.7,0-2.3
		c-1.2-1.2-2.3-2.3-2.9-3.5c-0.6-0.6-1.2,0-1.2,0.6c-1.2,2.3-2.3,4.1-3.5,6.4c-0.6,0.6-0.6,1.7,0,2.3c1.2,1.2,2.3,2.3,3.5,4.1
		C160.9,198.1,161.5,197.6,162.1,197z M167.3,184.2c0.6-2.3,1.7-4.6,2.3-7.5c0-1.2,0-1.7,0-2.3c-1.2-1.2-1.7-1.7-2.9-2.9
		c-0.6-0.6-0.6,0-1.2,1.2c-0.6,2.3-1.7,4.6-2.9,7c-0.6,0.6-0.6,1.7,0,2.3c1.2,1.2,2.3,2.3,2.9,3.5
		C166.7,185.4,167.3,185.4,167.3,184.2z M171.4,169.8c0.6-2.9,0.6-5.8,0.6-8.7c0-1.2,0-2.3-0.6-2.3c-0.6-0.6-1.2-1.2-1.7-1.7
		c0,0-0.6,0.6-0.6,1.7c-0.6,2.9-1.2,5.8-1.7,8.1c0,1.2,0,1.7,0,2.3c0.6,1.2,1.7,1.7,2.3,2.9C170.8,171.5,170.8,170.9,171.4,169.8z
		 M139.5,246.2c1.7-1.7,3.5-2.9,4.6-4.6c0.6-0.6,0.6-1.7,0-2.3c-1.2-1.7-2.9-2.9-4.1-4.6c-0.6-0.6-1.2-0.6-1.7,0
		c-1.7,1.7-3.5,2.9-4.6,4.6c-0.6,0.6-0.6,1.2,0,1.7c1.7,1.7,2.9,3.5,4.6,4.6C137.8,246.2,138.9,246.8,139.5,246.2z M148.2,237
		c1.2-1.7,2.9-3.5,4.1-5.2c0.6-0.6,0.6-1.7,0-2.3c-1.2-1.7-2.9-2.9-4.1-4.6c-0.6-0.6-1.2-0.6-1.7,0c-1.7,1.7-2.9,3.5-4.6,5.2
		c-0.6,0.6-0.6,1.7,0,2.3c1.2,1.7,2.9,2.9,4.1,4.6C146.4,237.5,147.6,237.5,148.2,237z M155.7,227.1c1.2-1.7,2.9-3.5,4.1-5.8
		c0.6-0.6,0.6-1.7,0-2.3c-1.2-1.2-2.3-2.9-4.1-4.1c-0.6-0.6-1.2-0.6-1.7,0.6c-1.2,1.7-2.9,3.5-4.1,5.8c-0.6,0.6-0.6,1.7,0,2.3
		c1.2,1.7,2.9,2.9,4.1,4.6C154.6,227.7,155.1,227.7,155.7,227.1z M162.7,216.1c1.2-2.3,2.3-4.1,3.5-6.4c0.6-0.6,0.6-1.7,0-2.3
		c-1.2-1.2-2.3-2.3-3.5-4.1c-0.6-0.6-1.2,0-1.7,0.6c-1.2,2.3-2.3,4.1-3.5,5.8c-0.6,0.6-0.6,1.7,0,2.3c1.2,1.2,2.3,2.9,4.1,4.1
		C161.5,216.7,162.7,216.7,162.7,216.1z M168.5,203.9c1.2-2.3,1.7-4.6,2.3-7c0-1.2,0-1.7,0-2.3c-1.2-1.2-2.3-2.3-2.9-3.5
		c-0.6-0.6-1.2,0-1.2,0.6c-1.2,2.3-1.7,4.6-2.9,7c-0.6,0.6-0.6,1.7,0,2.3c1.2,1.2,2.3,2.3,3.5,3.5
		C167.9,205.1,168.5,204.5,168.5,203.9z M173.1,190c0.6-2.9,1.2-5.2,1.7-8.1c0-1.2,0-2.3-0.6-2.3c-0.6-1.2-1.7-1.7-2.9-2.9
		c-0.6-0.6-0.6,0-1.2,1.2c-0.6,2.9-1.2,5.2-2.3,7.5c0,1.2,0,1.7,0,2.3c1.2,1.2,2.3,2.3,2.9,3.5C172.5,191.8,173.1,191.2,173.1,190z
		 M175.4,174.4c0-2.9,0-6.4,0-9.8c0-1.2-0.6-2.3-0.6-2.9c-0.6-0.6-1.2-1.2-1.7-1.7c0,0-0.6,0.6-0.6,1.7c0,3.5-0.6,6.4-0.6,9.3
		c0,1.2,0,2.3,0.6,2.3c0.6,1.2,1.7,1.7,2.3,2.9C175.4,176.1,175.4,175.6,175.4,174.4z M147.6,254.9c1.7-1.7,2.9-3.5,4.6-5.2
		c0.6-0.6,0.6-1.7,0-2.3c-1.2-1.7-2.9-2.9-4.1-4.6c-0.6-0.6-1.2-0.6-1.7,0c-1.7,1.7-2.9,3.5-4.6,4.6c-0.6,0.6-0.6,1.7,0,2.3
		c1.7,1.7,2.9,3.5,4.6,4.6C146.4,255.5,147,255.5,147.6,254.9z M156.3,245.7c1.2-1.7,2.9-3.5,4.1-5.2c0.6-0.6,0.6-1.7,0-2.3
		c-1.2-1.7-2.9-2.9-4.1-4.6c-0.6-0.6-1.2-0.6-1.7,0c-1.2,1.7-2.9,3.5-4.1,5.2c-0.6,0.6-0.6,1.7,0,2.3c1.2,1.7,2.9,2.9,4.1,4.6
		C154.6,246.2,155.7,246.2,156.3,245.7z M170.2,223.6c1.2-2.3,1.7-4.6,2.9-7c0.6-0.6,0-1.7,0-2.3c-1.2-1.2-2.3-2.3-3.5-4.1
		c-0.6-0.6-1.2,0-1.7,0.6c-1.2,2.3-2.3,4.1-2.9,6.4c-0.6,0.6-0.6,1.7,0,2.3c1.2,1.2,2.3,2.9,4.1,4.1
		C169,224.8,169.6,224.2,170.2,223.6z M174.8,210.9c0.6-2.3,1.7-4.6,2.3-7.5c0-1.2,0-1.7,0-2.3c-1.2-1.2-2.3-2.3-2.9-3.5
		c-0.6-0.6-1.2,0-1.2,1.2c-0.6,2.3-1.7,4.6-2.3,7c-0.6,0.6,0,1.7,0,2.3c1.2,1.2,2.3,2.3,3.5,4.1
		C174.2,212.1,174.8,211.5,174.8,210.9z M178.9,196.4c0.6-2.9,0.6-5.8,1.2-8.7c0-1.2,0-2.3-0.6-2.9c-1.2-1.2-1.7-1.7-2.9-2.9
		c-0.6-0.6-0.6,0-0.6,1.2c-0.6,2.9-1.2,5.8-1.7,8.1c0,1.2,0,2.3,0.6,2.3c1.2,1.2,2.3,2.3,2.9,3.5
		C178.3,198.1,178.3,197.6,178.9,196.4z M180,179.6c0-3.5-0.6-7-1.2-11c0-1.7-0.6-2.9-0.6-2.9c-0.6-0.6-1.2-1.2-1.7-1.7
		c0,0,0,0.6,0,1.7c0.6,3.5,0.6,7,0.6,10.4c0,1.2,0,2.3,0.6,2.9c0.6,1.2,1.7,1.7,2.3,2.9C180,181.3,180,180.8,180,179.6z M176.6,157
		c-1.7-4.6-3.5-10.4-7-17.4c-1.2-2.9-2.3-4.6-2.3-4.6s0,1.2,0,2.3c0,3.5,0,6.4-0.6,9.3c0,1.2,0,1.7,0,2.3c0.6,0.6,1.2,1.2,1.7,1.7
		c0,0,0.6-0.6,0.6-1.7c0-3.5-0.6-7-1.2-11c-0.6-1.7-0.6-2.9-0.6-2.9s0.6,1.2,0.6,2.9c1.2,4.1,1.2,8.1,1.7,11.6c0,1.2,0,2.3,0.6,2.3
		c0.6,0.6,1.2,1.2,1.7,1.7c0,0,0-0.6,0-2.3c-0.6-4.1-1.2-8.1-2.9-13.3c-0.6-1.7-1.2-3.5-1.2-3.5s0.6,1.7,1.2,3.5
		c1.7,5.2,2.9,9.8,3.5,13.3c0,1.2,0.6,2.3,0.6,2.9c0.6,0.6,1.2,1.2,1.7,1.7c0,0,0-0.6,0-2.3c-1.2-4.6-2.3-9.3-4.6-15.1
		c-1.2-2.3-1.7-4.1-1.7-4.1s1.2,1.7,1.7,4.1c2.3,5.8,4.1,11,5.2,15.6C176,155.9,176,157,176.6,157c0.6,0.6,1.2,1.2,1.7,1.7
		C177.1,159.9,177.1,158.8,176.6,157z M121.5,245.1c1.7-1.2,3.5-2.9,5.2-4.1c0.6-0.6,0.6-1.2,0-1.7c-1.7-1.7-2.9-3.5-4.6-4.6
		c-0.6-0.6-1.7-0.6-2.3,0c-1.7,1.2-3.5,2.9-5.2,4.1c-0.6,0.6-0.6,1.2,0,1.7c1.7,1.7,2.9,3.5,4.6,5.2
		C119.8,245.1,121,245.7,121.5,245.1z"/>
	<path class="st0" d="M226.4,161.1l61.4-60.8h-52.1L200.3,135L165,100.2h-7.5c0.6,1.7,1.7,4.1,2.9,6.4c3.5,9.3,7.5,22.6,11.6,38.8
		c11.6,13.3,16.8,31.3,15.6,53.9l12.2-12.2l37.7,37.7h52.1L231,165.7L226.4,161.1"/>
</g>
</svg>
